# xmcd
#
# Track frame offsets: 
#        150
#        17953
#        35666
#        52298
#        70310
#        87907
#        104909
#        125086
#        145594
#        166501
#        190186
#        206095
#        228909
#
# Disc length: 3531 seconds
#
# Revision: 2
# Processed by: cddbd v1.5.2PL0 Copyright (c) Steve Scherf et al.
# Submitted via: ExactAudioCopy v0.99pb1
#
DISCID=bf0dc90d
DTITLE=HIM - Deep Shadows And Brilliant Highlights (Limited)
DYEAR=2001
DGENRE=Satire
TTITLE0=Salt In Our Wounds
TTITLE1=Heartache Every Moment
TTITLE2=Lose You Tonight
TTITLE3=In Joy And Sorrow
TTITLE4=Pretending
TTITLE5=Close To The Flame
TTITLE6=Please Don't Let It Go
TTITLE7=Beautiful
TTITLE8=Don't Close Your Heart
TTITLE9=Love You Like I Do
TTITLE10=Again
TTITLE11=In Joy And Sorrow (string version)
TTITLE12=Pretending (the cosmic pope jam version)
EXTD=
EXTT0=
EXTT1=
EXTT2=
EXTT3=
EXTT4=
EXTT5=
EXTT6=
EXTT7=
EXTT8=
EXTT9=
EXTT10=
EXTT11=
EXTT12=
PLAYORDER=
